Coordinates
version=1
nRows=49
nColumns=12
inDegrees=yes

Units are S.I. units (second, meters, Newtons, ...)
Angles are in degrees

endheader
time	SC_y	SC_z	SC_x	AC_y	AC_z	AC_x	GH_y	GH_z	GH_yy	EL_x	PS_y
       0.0              -43.56          24.22          26.14          51.06          5.498         -7.642         -73.88          12.71         -126.2          99.26          65.38
   0.03162              -43.56          24.21          26.15          51.06          5.495         -7.641         -73.86          12.71         -126.2          99.25          65.38
   0.06324              -43.56          24.21          26.15          51.06          5.492          -7.64         -73.85          12.71         -126.2          99.24          65.37
   0.09485              -43.56           24.2          26.16          51.07          5.489         -7.639         -73.84          12.72         -126.2          99.23          65.36
    0.1265              -43.56           24.2          26.16          51.07          5.485         -7.638         -73.82          12.72         -126.2          99.22          65.35
    0.1581              -43.56          24.19          26.17          51.07          5.481         -7.637          -73.8          12.72         -126.2           99.2          65.34
    0.1897              -43.56          24.19          26.17          51.07          5.477         -7.636         -73.78          12.73         -126.2          99.19          65.33
    0.2213              -43.55          24.18          26.18          51.08          5.473         -7.635         -73.76          12.73         -126.2          99.18          65.32
    0.2529              -43.55          24.18          26.18          51.08          5.468         -7.634         -73.74          12.73         -126.2          99.16          65.31
    0.2846              -43.55          24.17          26.19          51.08          5.463         -7.633         -73.72          12.74         -126.2          99.15           65.3
    0.3162              -43.55          24.16           26.2          51.09          5.458         -7.631          -73.7          12.74         -126.2          99.13          65.28
    0.3478              -43.55          24.15          26.21          51.09          5.452          -7.63         -73.67          12.75         -126.2          99.11          65.27
    0.3794              -43.55          24.15          26.22          51.09          5.446         -7.628         -73.64          12.75         -126.2          99.09          65.25
     0.411              -43.55          24.14          26.23           51.1           5.44         -7.626         -73.61          12.76         -126.2          99.07          65.24
    0.4427              -43.55          24.13          26.24           51.1          5.432         -7.624         -73.58          12.77         -126.2          99.04          65.22
    0.4743              -43.54          24.12          26.25          51.11          5.425         -7.622         -73.54          12.77         -126.2          99.02           65.2
    0.5059              -43.54           24.1          26.26          51.11          5.416          -7.62          -73.5          12.78         -126.2          98.99          65.18
    0.5375              -43.54          24.09          26.27          51.12          5.407         -7.618         -73.46          12.79         -126.2          98.96          65.15
    0.5691              -43.54          24.08          26.29          51.13          5.397         -7.615         -73.41           12.8         -126.2          98.93          65.13
    0.6007              -43.54          24.06           26.3          51.13          5.386         -7.612         -73.36          12.81         -126.2          98.89           65.1
    0.6324              -43.53          24.05          26.32          51.14          5.374         -7.609         -73.31          12.82         -126.3          98.85          65.07
     0.664              -43.53          24.03          26.34          51.15           5.36         -7.606         -73.25          12.83         -126.3          98.81          65.04
    0.6956              -43.53          24.01          26.36          51.16          5.345         -7.602         -73.18          12.85         -126.3          98.76           65.0
    0.7272              -43.52          23.99          26.38          51.17          5.329         -7.597         -73.11          12.86         -126.3           98.7          64.96
    0.7588              -43.52          23.96          26.41          51.18          5.311         -7.593         -73.02          12.88         -126.3          98.64          64.91
    0.7905              -43.52          23.93          26.44          51.19          5.291         -7.587         -72.93           12.9         -126.3          98.58          64.86
    0.8221              -43.51           23.9          26.47          51.21          5.268         -7.581         -72.83          12.92         -126.3           98.5          64.81
    0.8537              -43.51          23.87          26.51          51.23          5.242         -7.575         -72.71          12.94         -126.4          98.42          64.74
    0.8853               -43.5          23.83          26.55          51.24          5.213         -7.567         -72.58          12.97         -126.4          98.32          64.67
    0.9169              -43.49          23.79           26.6          51.26          5.181         -7.559         -72.43           13.0         -126.4          98.22          64.59
    0.9485              -43.49          23.74          26.65          51.29          5.143         -7.549         -72.25          13.03         -126.4          98.09          64.49
    0.9802              -43.48          23.68          26.71          51.32            5.1         -7.537         -72.06          13.07         -126.5          97.95          64.38
     1.012              -43.47          23.61          26.78          51.35          5.051         -7.524         -71.83          13.11         -126.5          97.79          64.26
     1.043              -43.46          23.53          26.87          51.39          4.993         -7.509         -71.57          13.17         -126.5           97.6          64.11
     1.075              -43.44          23.44          26.96          51.43          4.926         -7.492         -71.26          13.23         -126.6          97.38          63.94
     1.107              -43.43          23.33          27.08          51.48          4.846         -7.471         -70.89           13.3         -126.6          97.12          63.74
     1.138              -43.41          23.21          27.21          51.54          4.752         -7.446         -70.46          13.39         -126.7          96.81          63.51
      1.17              -43.38          23.05          27.37          51.61          4.639         -7.417         -69.94          13.49         -126.8          96.44          63.22
     1.201              -43.36          22.87          27.57           51.7          4.502         -7.381         -69.32          13.61         -126.9          95.99          62.88
     1.233              -43.32          22.64          27.81          51.81          4.334         -7.337         -68.55          13.77         -127.0          95.44          62.46
     1.265              -43.28          22.36          28.11          51.94          4.128         -7.283         -67.61          13.95         -127.2          94.76          61.94
     1.296              -43.23          22.01          28.48          52.11           3.87         -7.215         -66.43          14.19         -127.4          93.91          61.29
     1.328              -43.16          21.57          28.94          52.32          3.546          -7.13         -64.94          14.48         -127.6          92.85          60.47
      1.36              -43.08          21.01          29.53          52.58          3.134         -7.022         -63.06          14.86         -127.9          91.49          59.43
     1.391              -42.97           20.3          30.29          52.92          2.606         -6.884         -60.64          15.34         -128.3          89.76           58.1
     1.423              -42.83          19.38          31.26          53.36          1.929         -6.706         -57.54          15.95         -128.8          87.53           56.4
     1.454              -42.66          18.21           32.5          53.92          1.064          -6.48         -53.58          16.74         -129.4          84.69          54.22
     1.486              -42.44          16.74          34.06          54.62       -0.02397         -6.195          -48.6          17.73         -130.2          81.12          51.48
     1.518              -42.17          14.94          35.96          55.47         -1.349         -5.847         -42.53          18.93         -131.2          76.76          48.15
